#!OML:ASF E:/inclinewalkrobotboard/Project1/Captureday1/Session1/subject1.ASF
:FULLY-SPECIFIED
:DEGREES
1
root 0 0 0 34.00590794469378 -47.99630432616763 -1.2913872336092513
lowerback -16.480653161956038 2.4529334484130167 -8.147764652929304
upperback -10.727848287024981 3.16326101927074 -1.7711285955217053
thorax -2.873867242404933 2.055965898579295 3.2109613785641833
lowerneck -11.325734319288134 4.955128341103369 6.029556995973187
upperneck 35.54172816711812 4.055238714591647 3.418877825693177
head 14.009467414162575 2.822762679535337 0.9127398270108574
rclavicle -2.9241357962591023E-15 7.15858241071747E-15
rhumerus -51.84347792221004 24.08212947898825 -92.41177986329213
rradius 31.31455275094575
rwrist -31.674672392010294
rhand 21.358329736129527 1.9318359117120885
rfingers 7.12501999999999
rthumb 45.615782603965805 -20.443978570059905
lclavicle 9.693934167053956E-15 1.1520046140198183E-14
lhumerus -71.10211696533628 -40.30980958257644 116.41021585407485
lradius 53.680644620904175
lwrist 34.00205427606857
lhand 25.77737212084765 21.93005932916628
lfingers 7.125020000000018
lthumb 49.80614182124239 42.78000202659527
rfemur -42.53968314945959 27.67811571092892 44.44693548170834
rtibia 46.397865866633786
rfoot 17.144910791237336 -33.60541349335276
rtoes 17.433275740682305
lfemur -44.72546652833178 0.8577478727220349 -29.8396037863275
ltibia 33.45841049213471
lfoot -53.27395580110954 27.07373140822739
ltoes 26.516155771954026
2
root 0 0 0 34.339396702666484 -47.3628787651731 -0.9727788511945583
lowerback -16.726588078675764 2.3879316903672088 -8.56307223765818
upperback -10.89929136711769 3.062007456201357 -1.7540216777562683
thorax -2.922626569017254 2.041725542316704 3.4775438260277745
lowerneck -11.236254180640213 5.043997706856748 6.0505335499731645
upperneck 35.422092201297566 4.210136983986722 3.3811462220652517
head 13.93951138217378 2.8901109886761858 0.9105449257166736
rclavicle -1.664392474027489E-15 4.767299198440011E-15
rhumerus -53.58876880791391 23.04172988534333 -91.17593636500965
rradius 29.61380743797307
rwrist -30.341926610169992
rhand 21.973132899838124 1.28841096904274
rfingers 7.125019999999988
rthumb 46.20825948257739 -21.035786656598546
lclavicle 1.0913254270354772E-14 9.7481899156583E-15
lhumerus -71.25747340088884 -41.10115117797409 115.92729489354558
lradius 54.441143980600565
lwrist 34.17352092104264
lhand 25.854421777861763 22.036598163277127
lfingers 7.125020000000019
lthumb 49.877108465343 42.84437841152709
rfemur -45.00964478607736 30.532205610006883 46.63389491331935
rtibia 44.081200395864606
rfoot 17.586312754587645 -35.94897760269161
rtoes 18.552487663046513
lfemur -43.93266172405668 0.6017833613881081 -29.11169708092646
ltibia 32.271501762295905
lfoot -56.60807386184807 27.47965223125002
ltoes 27.767320029671044
3
root 0 0 0 34.64956534062697 -46.868343968827794 -0.832032983576882
lowerback -16.902037685071726 2.3351065230706056 -8.818492600936048
upperback -11.011669209253673 2.980044623274978 -1.7129676797162445
thorax -2.9398406039499934 2.020529014926276 3.67509884337464
lowerneck -11.204306507980098 5.061032940052778 6.031583931290083
upperneck 35.375440800865874 4.2595884628522285 3.3264847515319236
head 13.910611114123832 2.9070740233387586 0.8998758036090819
rclavicle -7.580396492099719E-16 4.176096052718851E-15
rhumerus -54.81893951895321 20.804115848939077 -88.26817714440591
rradius 27.83584433705939
rwrist -28.070483723386914
rhand 22.587810282274557 0.5742031524980362
rfingers 7.125019999999985
rthumb 46.807979536340824 -21.725485998545178
lclavicle 1.1493680994180958E-14 9.43892896937641E-15
lhumerus -70.7577737597946 -41.13051716966936 115.40531603346726
lradius 54.57278825764021
lwrist 34.1205397441769
lhand 25.67845116614406 22.098794298869407
lfingers 7.125020000000019
lthumb 49.70916927794221 42.92438093185044
rfemur -45.71758891913966 31.55337577130274 47.18929986683645
rtibia 40.6017352449556
rfoot 15.078971937024598 -36.81837789725431
rtoes 19.18336538066876
lfemur -43.39832705058432 0.5172656197197902 -28.910581266400666
ltibia 31.805579893592025
lfoot -57.997368237674166 27.639202967681378
ltoes 28.151416106104186
4
root 0 0 0 34.822374642664904 -46.5503926270747 -0.7230477400800783
lowerback -17.009383663283423 2.290183948688017 -8.972730605461106
upperback -11.083128249913797 2.9132604677466523 -1.6779220497385796
thorax -2.952685002770613 1.99959503572864 3.804286950354411
lowerneck -11.180317213836528 5.051749549347703 6.009107403081509
upperneck 35.37265393051546 4.264475615564999 3.2781493758727405
head 13.901440109313095 2.9039172053383098 0.8876668851547108
rclavicle 6.396008628028582E-16 3.5042123656439785E-15
rhumerus -55.319758108927324 17.18266524229611 -83.38116888910575
rradius 25.902677611384313
rwrist -24.82409466514273
rhand 23.39711510408848 -0.34810196825864814
rfingers 7.125019999999982
rthumb 47.596578039711744 -22.623970010139764
lclavicle 1.2213330795873976E-14 9.181383135912066E-15
lhumerus -70.04649412214403 -40.710450194941416 115.08004671014011
lradius 54.36331134053489
lwrist 34.07089106439739
lhand 25.44546681888766 22.192375474641537
lfingers 7.125020000000018
lthumb 49.48731342999085 43.05902652942942
rfemur -44.605355805651826 31.200806935449663 46.34663238065926
rtibia 36.06612789423846
rfoot 10.281594506926936 -35.985040474839195
rtoes 19.350926819073017
lfemur -43.072641070416864 0.4505993663128933 -28.938794867060466
ltibia 31.71003333539808
lfoot -58.27491343949194 27.64928440510896
ltoes 28.036443417202328
